<svg xmlns="http://www.w3.org/2000/svg" width="800" height="420">
<title>Gene-level classification counts</title>
<rect width="100%" height="100%" fill="#ffffff"/>
<text x="400.0" y="30.0" text-anchor="middle" font-family="Helvetica" font-size="18">Gene-level classification counts</text>
<line x1="60" y1="360" x2="740" y2="360" stroke="#333"/>
<line x1="60" y1="60" x2="60" y2="360" stroke="#333"/>
<rect x="77.00" y="100.30" width="136.00" height="259.70" fill="#4477aa"/>
<text x="145.00" y="380.00" text-anchor="middle" font-family="Helvetica" font-size="14">Green</text>
<text x="145.00" y="95.30" text-anchor="middle" font-family="Helvetica" font-size="13">15706</text>
<rect x="247.00" y="60.00" width="136.00" height="300.00" fill="#4477aa"/>
<text x="315.00" y="380.00" text-anchor="middle" font-family="Helvetica" font-size="14">Yellow</text>
<text x="315.00" y="55.00" text-anchor="middle" font-family="Helvetica" font-size="13">18143</text>
<rect x="417.00" y="262.61" width="136.00" height="97.39" fill="#4477aa"/>
<text x="485.00" y="380.00" text-anchor="middle" font-family="Helvetica" font-size="14">Red</text>
<text x="485.00" y="257.61" text-anchor="middle" font-family="Helvetica" font-size="13">5890</text>
<rect x="587.00" y="204.80" width="136.00" height="155.20" fill="#4477aa"/>
<text x="655.00" y="380.00" text-anchor="middle" font-family="Helvetica" font-size="14">NotMapped</text>
<text x="655.00" y="199.80" text-anchor="middle" font-family="Helvetica" font-size="13">9386</text>
<line x1="55" y1="285.00" x2="740" y2="285.00" stroke="#cccccc" stroke-dasharray="4,4"/>
<text x="50" y="289.00" text-anchor="end" font-family="Helvetica" font-size="12">4535</text>
<line x1="55" y1="210.00" x2="740" y2="210.00" stroke="#cccccc" stroke-dasharray="4,4"/>
<text x="50" y="214.00" text-anchor="end" font-family="Helvetica" font-size="12">9071</text>
<line x1="55" y1="135.00" x2="740" y2="135.00" stroke="#cccccc" stroke-dasharray="4,4"/>
<text x="50" y="139.00" text-anchor="end" font-family="Helvetica" font-size="12">13607</text>
<line x1="55" y1="60.00" x2="740" y2="60.00" stroke="#cccccc" stroke-dasharray="4,4"/>
<text x="50" y="64.00" text-anchor="end" font-family="Helvetica" font-size="12">18143</text>
</svg>